<svg width="16" height="16" viewBox="0 0 16 16" fill="none" xmlns="http://www.w3.org/2000/svg">
<path fill-rule="evenodd" clip-rule="evenodd" d="M13.7597 7.99828C13.7597 4.81737 11.1807 2.23828 7.99975 2.23828C4.81883 2.23828 2.23975 4.81737 2.23975 7.99828C2.23975 10.873 4.3458 13.2561 7.09984 13.6887V9.66368H5.63694V7.99828H7.09984V6.72898C7.09984 5.28553 7.96006 4.48766 9.27551 4.48766C9.90569 4.48766 10.5651 4.60025 10.5651 4.60025V6.01779H9.83846C9.12324 6.01779 8.89966 6.46168 8.89966 6.91771V7.99824H10.497L10.2418 9.66364H8.89961V13.6886C11.6536 13.2568 13.7597 10.8738 13.7597 7.99824L13.7597 7.99828Z" fill="#1977F3"/>
<path fill-rule="evenodd" clip-rule="evenodd" d="M10.2421 9.66426L10.4973 7.99886H8.89993V6.91833C8.89993 6.4631 9.12267 6.01841 9.83873 6.01841H10.5653V4.60087C10.5653 4.60087 9.90601 4.48828 9.27578 4.48828C7.96033 4.48828 7.10011 5.28535 7.10011 6.7296V7.9989H5.63721V9.6643H7.10011V13.6893C7.39331 13.7354 7.69383 13.7589 8.00002 13.7589C8.3062 13.7589 8.60672 13.7346 8.89993 13.6893V9.6643H10.2421L10.2421 9.66426Z" fill="#FEFEFE"/>
</svg>
