<svg width="16" height="16" viewBox="0 0 16 16" fill="none" xmlns="http://www.w3.org/2000/svg">
<path d="M8.00511 5.05472C7.9038 5.05472 7.8036 5.05989 7.70488 5.07C7.60616 5.08012 7.5088 5.0951 7.4131 5.11477C7.31741 5.13444 7.22341 5.1588 7.13129 5.18755L6.86092 5.28682L6.60351 5.41112L6.36059 5.55893L6.13362 5.72869L5.92419 5.91894L5.73375 6.1282L5.5638 6.35491L5.41581 6.5976L5.29144 6.85472C5.25405 6.94267 5.2208 7.03283 5.19202 7.12487C5.16323 7.21691 5.13887 7.31087 5.11916 7.40646C5.09946 7.50204 5.08447 7.59929 5.07432 7.69794C5.06418 7.79659 5.05908 7.89668 5.05908 7.99787C5.05908 8.09907 5.06425 8.19915 5.07432 8.2978C5.08434 8.39567 5.09931 8.49297 5.11916 8.58932C5.13887 8.68527 5.16323 8.77887 5.19202 8.87091C5.2208 8.96295 5.25402 9.05308 5.29144 9.14106L5.41581 9.39818L5.5638 9.64083L5.73375 9.86758L5.92419 10.0768L6.13362 10.2671L6.36059 10.4368L6.60351 10.5847L6.86092 10.709L7.13129 10.8082L7.4131 10.881C7.50955 10.9008 7.60693 10.9158 7.70488 10.9258C7.80463 10.936 7.90484 10.9411 8.00511 10.9411C8.10641 10.9411 8.20661 10.9359 8.3053 10.9258C8.40325 10.9158 8.50063 10.9008 8.59707 10.881L8.87892 10.8082L9.14929 10.709L9.40667 10.5847L9.64962 10.4368L9.87659 10.2671L10.0861 10.0768L10.2765 9.86758L10.4464 9.64083L10.5944 9.39818L10.7188 9.14106L10.8182 8.87091C10.847 8.77887 10.8714 8.6849 10.8911 8.58932L10.9359 8.29777C10.946 8.19912 10.9512 8.09903 10.9512 7.99783C10.9512 7.89664 10.946 7.79655 10.9359 7.6979C10.9259 7.60005 10.9109 7.50276 10.8911 7.40642C10.8714 7.31047 10.847 7.21691 10.8182 7.12483L10.7188 6.85468L10.5944 6.59756L10.4464 6.35487L10.2765 6.12816L10.0861 5.91891L9.87659 5.72866L9.64962 5.55889L9.40667 5.41108L9.14929 5.28679L8.87892 5.18751L8.59707 5.11473L8.3053 5.06997C8.20556 5.05978 8.10536 5.05468 8.00511 5.05469V5.05472ZM8.00511 6.07059C8.07209 6.07059 8.13819 6.07391 8.20329 6.08048L8.3952 6.10952L8.58058 6.15676L8.75809 6.22124L8.92686 6.30206L9.08555 6.3982L9.23391 6.5088L9.37069 6.63288L9.49487 6.76951L9.60559 6.91772L9.70184 7.07663L9.78266 7.24529C9.80695 7.30301 9.8285 7.36217 9.84725 7.42266C9.866 7.48315 9.88176 7.54497 9.89449 7.60793C9.90722 7.67089 9.91663 7.73496 9.92353 7.80002L9.93342 7.99806C9.93342 8.06497 9.9301 8.13103 9.92353 8.19613C9.91696 8.26123 9.90729 8.3253 9.89449 8.38822C9.88168 8.45114 9.86589 8.51296 9.84725 8.57349L9.78266 8.75086L9.70184 8.91951L9.60559 9.07839L9.49487 9.22664L9.37069 9.36327L9.23391 9.48734L9.08555 9.59795L8.92686 9.69409L8.75809 9.77491L8.58058 9.83939L8.3952 9.88662L8.20329 9.91563C8.13742 9.92223 8.07127 9.92553 8.00507 9.92552C7.93886 9.92553 7.87269 9.92223 7.80681 9.91563L7.6149 9.88662C7.55191 9.87386 7.49005 9.85806 7.42949 9.83939L7.25197 9.77491L7.08321 9.69409L6.92451 9.59795L6.77615 9.48734L6.63938 9.36327L6.51519 9.22664L6.40447 9.07839L6.30823 8.91951L6.2274 8.75086L6.16282 8.57349L6.11558 8.38822L6.08653 8.19613C6.07993 8.13031 6.07663 8.0642 6.07664 7.99806C6.07663 7.93192 6.07993 7.86582 6.08653 7.80002C6.09307 7.73496 6.10277 7.67085 6.11558 7.60793C6.12826 7.54544 6.14403 7.48362 6.16285 7.4227L6.22744 7.24533L6.30826 7.07667L6.40451 6.91776L6.51523 6.76954L6.63942 6.63292L6.77619 6.50884L6.92455 6.39824L7.08324 6.3021L7.25201 6.22127C7.3101 6.19688 7.36936 6.17536 7.42956 6.1568L7.61498 6.10956C7.67798 6.09679 7.74212 6.08705 7.80689 6.08052C7.87277 6.07391 7.93893 6.07061 8.00514 6.07062L8.00511 6.07059Z" fill="url(#paint0_radial_1452_103523)"/>
<path d="M11.0702 4.21875C11.0468 4.21875 11.0235 4.21994 11.0002 4.22229C10.9769 4.22465 10.9538 4.22817 10.9308 4.23285C10.9079 4.23752 10.8852 4.24335 10.8629 4.2503C10.8405 4.25726 10.8186 4.26534 10.797 4.27451C10.7755 4.2837 10.7544 4.29396 10.7339 4.30526C10.7133 4.31654 10.6934 4.32884 10.6741 4.34213C10.6548 4.35542 10.6361 4.36969 10.6182 4.38486C10.6004 4.40002 10.5832 4.41607 10.5669 4.43295C10.5507 4.44984 10.5352 4.46754 10.5207 4.48598C10.5061 4.50443 10.4925 4.52359 10.4799 4.54341C10.4673 4.56321 10.4556 4.58363 10.445 4.6046C10.4344 4.62558 10.4248 4.64709 10.4163 4.66904C10.4079 4.69098 10.4005 4.71333 10.3942 4.73602C10.388 4.7587 10.3828 4.78169 10.3789 4.80488C10.3749 4.82808 10.3721 4.85146 10.3704 4.87493C10.3692 4.89156 10.3687 4.90823 10.3687 4.9249C10.3687 4.94845 10.3698 4.97199 10.3722 4.99543C10.3745 5.01885 10.378 5.04214 10.3826 5.06522C10.3873 5.08829 10.3931 5.11111 10.4 5.1336C10.4069 5.1561 10.4149 5.17823 10.424 5.19992C10.4332 5.22162 10.4433 5.24284 10.4546 5.26351C10.4658 5.28418 10.478 5.30427 10.4912 5.3237C10.5044 5.34313 10.5186 5.36187 10.5337 5.37987C10.5487 5.39789 10.5647 5.41513 10.5814 5.43154C10.5982 5.44794 10.6158 5.46349 10.6342 5.47812C10.6525 5.49276 10.6715 5.50647 10.6912 5.51919C10.7109 5.53192 10.7312 5.54364 10.7521 5.55433C10.7729 5.56501 10.7943 5.57465 10.8161 5.58319C10.8379 5.59172 10.8601 5.59914 10.8826 5.60544C10.9051 5.61173 10.928 5.61688 10.951 5.62087C10.9741 5.62487 10.9973 5.62772 11.0206 5.62939C11.0371 5.63057 11.0537 5.63116 11.0703 5.63116C11.0937 5.63117 11.117 5.63 11.1403 5.62766C11.1636 5.6253 11.1867 5.62178 11.2097 5.6171C11.2326 5.61243 11.2553 5.6066 11.2776 5.59965C11.2999 5.59269 11.3219 5.58461 11.3435 5.57544C11.365 5.56627 11.3861 5.55602 11.4066 5.54473C11.4271 5.53344 11.4471 5.52112 11.4664 5.50783C11.4857 5.49454 11.5044 5.48029 11.5222 5.46513C11.5401 5.44995 11.5573 5.43389 11.5735 5.417C11.5898 5.40011 11.6053 5.38241 11.6198 5.36397C11.6344 5.34552 11.648 5.32636 11.6606 5.30654C11.6732 5.28673 11.6849 5.2663 11.6955 5.24532C11.7061 5.22433 11.7157 5.20283 11.7242 5.18088C11.7326 5.15894 11.74 5.13658 11.7463 5.1139C11.7525 5.09121 11.7576 5.06823 11.7616 5.04503C11.7656 5.02184 11.7684 4.99846 11.7701 4.97498C11.7712 4.95835 11.7718 4.94168 11.7718 4.92501C11.7718 4.90147 11.7707 4.87795 11.7683 4.85452C11.766 4.8311 11.7625 4.80781 11.7579 4.78473C11.7532 4.76166 11.7474 4.73884 11.7405 4.71635C11.7336 4.69385 11.7256 4.67172 11.7164 4.65003C11.7073 4.62833 11.6971 4.60711 11.6859 4.58644C11.6747 4.56577 11.6625 4.54568 11.6493 4.52625C11.6361 4.50681 11.6219 4.48805 11.6068 4.47004C11.5917 4.45203 11.5758 4.43478 11.559 4.41837C11.5423 4.40197 11.5247 4.38643 11.5063 4.3718C11.488 4.35717 11.469 4.34347 11.4493 4.33076C11.4296 4.31803 11.4093 4.30631 11.3884 4.29562C11.3676 4.28494 11.3462 4.2753 11.3244 4.26676C11.3026 4.25823 11.2804 4.25081 11.2579 4.24451C11.2354 4.23821 11.2125 4.23305 11.1895 4.22905C11.1664 4.22505 11.1432 4.22222 11.1199 4.22056C11.1033 4.21938 11.0868 4.21879 11.0702 4.21879V4.21875Z" fill="url(#paint1_radial_1452_103523)"/>
<path d="M7.44605 2.23839C7.12564 2.23787 6.83969 2.2392 6.58283 2.24282L5.89417 2.26127C5.69016 2.27013 5.50991 2.28168 5.34812 2.29662C5.26722 2.30408 5.1909 2.31242 5.11857 2.32161C5.04973 2.33029 4.98109 2.34039 4.91267 2.35191C4.84753 2.36298 4.78571 2.37494 4.72644 2.38793C4.66717 2.40092 4.61056 2.41494 4.55594 2.43C4.50254 2.44473 4.44956 2.46092 4.39706 2.47857C4.34562 2.49592 4.29542 2.51429 4.24586 2.53393C4.14673 2.5732 4.05004 2.61726 3.95047 2.66664C3.87385 2.70465 3.80307 2.74315 3.73582 2.78389C3.66858 2.82463 3.60488 2.86766 3.54251 2.91454C3.47828 2.96304 3.41637 3.01454 3.35699 3.06887C3.29491 3.12541 3.23151 3.1876 3.16563 3.25709C3.08285 3.34393 3.01092 3.4249 2.94708 3.50436C2.91516 3.54407 2.88526 3.58334 2.8571 3.62283C2.82925 3.66174 2.80263 3.70152 2.77728 3.74211C2.75218 3.78233 2.72841 3.8233 2.70568 3.86544C2.68259 3.90832 2.66077 3.95186 2.64025 3.99602C2.59825 4.08621 2.55905 4.18335 2.51993 4.29178C2.49091 4.37194 2.46492 4.45316 2.44203 4.53528C2.41866 4.6192 2.39789 4.707 2.37936 4.80196C2.36083 4.89692 2.34467 4.99904 2.33046 5.11197C2.31515 5.23576 2.30292 5.35991 2.29378 5.48431C2.28344 5.62108 2.27488 5.77158 2.26787 5.93909L2.25126 6.49607L2.24233 7.17503L2.23975 7.99569L2.24731 9.18911L2.27093 10.0933L2.28913 10.4465L2.31186 10.7391C2.31915 10.818 2.32827 10.8967 2.33921 10.9752C2.34917 11.0449 2.35987 11.1058 2.37139 11.1586C2.39475 11.2659 2.42238 11.3722 2.4542 11.4773C2.48468 11.578 2.51952 11.6772 2.55865 11.7748C2.5971 11.8704 2.63918 11.9626 2.68494 12.0513C2.7307 12.14 2.78015 12.2253 2.8333 12.3072C2.88644 12.389 2.94328 12.4676 3.00395 12.5428C3.06455 12.6179 3.12902 12.6899 3.19708 12.7584C3.26524 12.8271 3.33713 12.8924 3.4129 12.9545C3.48956 13.0173 3.56925 13.0763 3.65168 13.1313C3.72819 13.1824 3.80388 13.2292 3.88013 13.2722C3.95637 13.3152 4.03328 13.3542 4.11234 13.3897C4.19139 13.4252 4.27243 13.4571 4.35709 13.4858C4.44175 13.5145 4.52996 13.5401 4.62318 13.5627C4.71641 13.5854 4.81509 13.6053 4.91953 13.6226C5.02398 13.64 5.13562 13.6548 5.2549 13.6676C5.37417 13.6804 5.50142 13.691 5.63816 13.6999C5.77489 13.7088 5.92104 13.7158 6.07807 13.7215C6.32065 13.7303 6.68786 13.7354 7.11132 13.7374L8.48218 13.7346L9.78029 13.7164L10.2739 13.7026L10.5954 13.686C10.6644 13.6804 10.732 13.6738 10.7972 13.666C10.8623 13.6582 10.9266 13.6493 10.9892 13.6392C11.0518 13.6291 11.113 13.6178 11.1731 13.6052C11.2325 13.5929 11.2917 13.579 11.3504 13.5638C11.4086 13.549 11.4659 13.5322 11.5227 13.5144C11.5794 13.4966 11.6356 13.4773 11.6914 13.4566C11.7476 13.4359 11.8033 13.4137 11.8583 13.3902C11.9138 13.3666 11.9692 13.3413 12.0248 13.3145C12.1101 13.2734 12.1789 13.2391 12.2392 13.2057C12.296 13.1745 12.3506 13.1397 12.4028 13.1014C12.4544 13.0635 12.5056 13.0203 12.5646 12.9659C12.6237 12.9115 12.6906 12.846 12.7734 12.7631C12.8463 12.6903 12.9077 12.627 12.9606 12.5695C13.0136 12.512 13.0582 12.4602 13.0973 12.4103C13.1346 12.363 13.1694 12.3137 13.2014 12.2626C13.2327 12.2128 13.2614 12.161 13.2908 12.1037C13.3349 12.0173 13.3742 11.9373 13.4094 11.8602C13.4435 11.7858 13.4747 11.7101 13.5029 11.6333C13.5306 11.557 13.5547 11.4795 13.5749 11.4009C13.5957 11.3201 13.6136 11.2348 13.6291 11.1412C13.6446 11.0476 13.6577 10.9457 13.6691 10.832C13.6805 10.7183 13.6901 10.5926 13.6986 10.4513L13.7211 9.97719L13.7405 9.38755L13.7543 8.73063L13.7596 8.04375L13.7473 6.69466L13.7308 6.09041L13.7083 5.57159L13.6802 5.1671C13.67 5.05454 13.659 4.96589 13.6474 4.90596C13.6345 4.83974 13.62 4.77382 13.6041 4.70826C13.5886 4.64446 13.5716 4.58105 13.553 4.51808C13.5349 4.45673 13.5152 4.39586 13.494 4.33551C13.4731 4.27591 13.4508 4.21756 13.4276 4.16047C13.4043 4.10337 13.3792 4.04761 13.353 3.99303C13.3268 3.93844 13.2993 3.88519 13.2705 3.83315C13.2417 3.78112 13.2116 3.73037 13.1802 3.68088C13.1488 3.63139 13.1161 3.58315 13.0821 3.53621C13.0482 3.48942 13.0129 3.44369 12.9761 3.39911C12.9396 3.35476 12.9017 3.31159 12.8624 3.26964C12.8232 3.22775 12.7826 3.18711 12.7409 3.14778C12.699 3.10844 12.656 3.07035 12.6115 3.03352C12.5669 2.99657 12.5212 2.96101 12.4744 2.9269C12.4271 2.89244 12.3788 2.85943 12.3294 2.82792C12.2794 2.79596 12.2285 2.76548 12.1767 2.73654C12.124 2.70711 12.0705 2.6792 12.0162 2.65284C11.9261 2.60903 11.8427 2.57017 11.7609 2.5357C11.6805 2.50149 11.5985 2.47111 11.5152 2.44465C11.4314 2.41827 11.3442 2.39564 11.2483 2.37612C11.1523 2.3566 11.0477 2.34032 10.9292 2.32648C10.8108 2.31264 10.6786 2.30146 10.5273 2.29216C10.3761 2.28286 10.206 2.27555 10.0118 2.26965L9.35167 2.25489L8.51624 2.24503L7.44642 2.23846L7.44605 2.23839ZM8.00167 3.25337L9.54443 3.26215L10.1264 3.27337C10.2867 3.27787 10.409 3.28315 10.4807 3.28924C10.5741 3.2971 10.663 3.30695 10.7481 3.31876C10.8297 3.33004 10.911 3.34405 10.9917 3.3608C11.0692 3.37704 11.1431 3.39549 11.2139 3.4163C11.2846 3.43712 11.3522 3.46044 11.417 3.48624C11.4819 3.51204 11.5439 3.54042 11.6035 3.57149C11.6627 3.60233 11.7203 3.63627 11.7759 3.67317C11.8312 3.70989 11.8846 3.74945 11.9364 3.79208C11.9882 3.8347 12.0385 3.88039 12.0875 3.92925C12.1393 3.98081 12.1871 4.03333 12.2311 4.08751C12.2749 4.14135 12.3155 4.19778 12.3526 4.2565C12.3901 4.31605 12.4239 4.37786 12.4538 4.44158C12.4844 4.50653 12.5118 4.57518 12.5365 4.64814C12.5611 4.7211 12.5831 4.79864 12.6025 4.88149C12.6229 4.96933 12.64 5.05791 12.6537 5.14703C12.6685 5.24151 12.6811 5.34226 12.6918 5.45013C12.7025 5.55801 12.7113 5.67304 12.7186 5.79612C12.7245 5.89484 12.7296 6.02512 12.7339 6.17898L12.7447 6.70359L12.753 7.98865L12.7436 9.27248L12.7323 9.79558L12.7167 10.176C12.7059 10.3542 12.6946 10.5039 12.681 10.6343C12.6742 10.6995 12.6668 10.7598 12.6586 10.8164C12.6509 10.8698 12.6418 10.923 12.6313 10.976C12.6217 11.0243 12.6106 11.0723 12.5979 11.1199C12.5858 11.1654 12.5721 11.2104 12.557 11.2549C12.5417 11.2996 12.5251 11.3439 12.5072 11.3876C12.4883 11.4338 12.4683 11.4795 12.4472 11.5248C12.4285 11.5652 12.4089 11.6045 12.388 11.6428C12.3675 11.6807 12.3456 11.7178 12.3225 11.7542C12.2996 11.7903 12.2756 11.8253 12.2505 11.8592C12.2256 11.893 12.1994 11.9259 12.1721 11.9578C12.1448 11.9896 12.1164 12.0204 12.0869 12.0501C12.0574 12.0798 12.0268 12.1085 11.995 12.1362C11.9633 12.1638 11.9304 12.1904 11.8963 12.216C11.8622 12.2416 11.827 12.2662 11.7906 12.2898C11.7542 12.3133 11.7166 12.3359 11.6778 12.3575C11.639 12.379 11.599 12.3996 11.5579 12.4192C11.516 12.4391 11.4735 12.4577 11.4306 12.4751C11.3861 12.493 11.3412 12.5097 11.2959 12.5251C11.2036 12.5565 11.1063 12.5841 11.0038 12.6079C10.8971 12.6326 10.7893 12.6528 10.6808 12.6684C10.6391 12.6745 10.5433 12.6802 10.406 12.6855L9.88282 12.7L8.39958 12.7193L6.84711 12.7217L6.23743 12.7153L5.84155 12.7029L5.54962 12.6824C5.45898 12.6748 5.37469 12.6663 5.29571 12.6566C5.21673 12.647 5.14318 12.6363 5.07398 12.6242C5.00841 12.6128 4.94323 12.5993 4.87857 12.5836C4.81961 12.5692 4.76125 12.5525 4.70364 12.5335C4.64809 12.515 4.59499 12.4947 4.54332 12.4724C4.49165 12.4501 4.44146 12.4256 4.39175 12.3989C4.34204 12.3721 4.29284 12.3431 4.24309 12.3115C4.20556 12.2877 4.16928 12.2635 4.13437 12.238C4.09946 12.2124 4.06572 12.1869 4.03325 12.1602C4.00077 12.1334 3.96958 12.1059 3.93951 12.0776C3.90963 12.0494 3.88077 12.0201 3.853 11.9898C3.82532 11.9596 3.79886 11.9285 3.77347 11.8964C3.74798 11.864 3.72369 11.8308 3.70065 11.7967C3.67727 11.7621 3.65515 11.7266 3.63433 11.6904C3.6133 11.6539 3.5933 11.6161 3.57429 11.5771C3.55496 11.5374 3.53693 11.4971 3.52022 11.4562C3.50325 11.4146 3.48715 11.3716 3.47202 11.3272C3.44176 11.2385 3.41519 11.144 3.39209 11.0432C3.36898 10.9425 3.34928 10.8355 3.33259 10.7214C3.31591 10.6074 3.30248 10.4865 3.29178 10.358C3.28388 10.2633 3.2776 10.1159 3.27281 9.92988L3.26277 9.26835L3.26646 7.58195L3.2955 5.9705L3.31765 5.40275L3.3302 5.21508C3.33455 5.16496 3.33905 5.12784 3.34367 5.10555C3.35887 5.03221 3.37419 4.96398 3.39002 4.90009C3.40481 4.83982 3.42126 4.77998 3.43936 4.72062C3.45656 4.6646 3.47468 4.61212 3.49406 4.56241C3.51274 4.51425 3.53356 4.46695 3.55646 4.42065C3.57883 4.37563 3.60285 4.33252 3.62895 4.29056C3.65504 4.2486 3.6832 4.20789 3.7139 4.16741C3.74461 4.12692 3.77768 4.08695 3.81366 4.04643C3.84964 4.00591 3.8885 3.96498 3.93065 3.9228C3.97977 3.8734 4.03091 3.82606 4.08395 3.78089C4.13404 3.73829 4.18627 3.69826 4.24043 3.66099C4.29369 3.62408 4.34831 3.59124 4.40518 3.56105C4.46205 3.53086 4.52118 3.50359 4.58336 3.47904C4.64555 3.4545 4.71087 3.43254 4.78007 3.41261C4.85276 3.39222 4.92627 3.37482 5.00039 3.36047C5.07834 3.34519 5.16112 3.33186 5.24951 3.32024C5.3379 3.30861 5.43193 3.29857 5.53246 3.28986C5.60258 3.28381 5.72341 3.27842 5.88251 3.27388L6.46156 3.26244L8.00192 3.25303L8.00167 3.25337Z" fill="url(#paint2_radial_1452_103523)"/>
<defs>
<radialGradient id="paint0_radial_1452_103523" cx="0" cy="0" r="1" gradientUnits="userSpaceOnUse" gradientTransform="translate(4.07544 14.5773) rotate(-9.53101) scale(24.347 14.7785)">
<stop stop-color="#FED576"/>
<stop offset="0.263" stop-color="#F47133"/>
<stop offset="0.609" stop-color="#BC3081"/>
<stop offset="1" stop-color="#4C63D2"/>
</radialGradient>
<radialGradient id="paint1_radial_1452_103523" cx="0" cy="0" r="1" gradientUnits="userSpaceOnUse" gradientTransform="translate(4.07504 14.5786) rotate(-9.53102) scale(24.347 14.7785)">
<stop stop-color="#FED576"/>
<stop offset="0.263" stop-color="#F47133"/>
<stop offset="0.609" stop-color="#BC3081"/>
<stop offset="1" stop-color="#4C63D2"/>
</radialGradient>
<radialGradient id="paint2_radial_1452_103523" cx="0" cy="0" r="1" gradientUnits="userSpaceOnUse" gradientTransform="translate(4.07506 14.5756) rotate(-9.53101) scale(24.347 14.7785)">
<stop stop-color="#FED576"/>
<stop offset="0.263" stop-color="#F47133"/>
<stop offset="0.609" stop-color="#BC3081"/>
<stop offset="1" stop-color="#4C63D2"/>
</radialGradient>
</defs>
</svg>
