<svg width="16" height="16" viewBox="0 0 16 16" fill="none" xmlns="http://www.w3.org/2000/svg">
<path d="M12.055 12.0554H10.3621V9.40422C10.3621 8.77202 10.3508 7.95818 9.4816 7.95818C8.59987 7.95818 8.46496 8.64699 8.46496 9.35819V12.0552H6.77203V6.60331H8.39724V7.34837H8.41999C8.58264 7.07028 8.81766 6.84151 9.10004 6.68643C9.38242 6.53134 9.70157 6.45575 10.0235 6.4677C11.7394 6.4677 12.0557 7.59631 12.0557 9.06457L12.055 12.0554ZM4.86185 5.85807C4.66755 5.8581 4.47759 5.80052 4.31601 5.6926C4.15443 5.58468 4.0285 5.43127 3.95411 5.25176C3.87972 5.07226 3.86022 4.87473 3.89809 4.68415C3.93597 4.49358 4.02951 4.31851 4.16688 4.18109C4.30425 4.04367 4.47928 3.95007 4.66985 3.91213C4.86041 3.87419 5.05794 3.89361 5.23747 3.96793C5.417 4.04226 5.57045 4.16815 5.67843 4.32969C5.78641 4.49123 5.84407 4.68116 5.8441 4.87547C5.84413 5.00448 5.81873 5.13224 5.76938 5.25144C5.72003 5.37064 5.6477 5.47896 5.55649 5.5702C5.46528 5.66144 5.35698 5.73383 5.23779 5.78322C5.11861 5.83261 4.99087 5.85805 4.86185 5.85807ZM5.70831 12.0554H4.01363V6.60331H5.70831V12.0554ZM12.899 2.32109H3.16294C2.94196 2.3186 2.72901 2.40394 2.57092 2.55836C2.41283 2.71278 2.32252 2.92365 2.31982 3.14463V12.9211C2.32243 13.1422 2.41268 13.3532 2.57077 13.5078C2.72886 13.6624 2.94185 13.7479 3.16294 13.7455H12.899C13.1205 13.7483 13.3341 13.663 13.4928 13.5084C13.6515 13.3539 13.7424 13.1426 13.7455 12.9211V3.14392C13.7423 2.92251 13.6514 2.7114 13.4927 2.55698C13.334 2.40256 13.1204 2.31747 12.899 2.32039" fill="#0A66C2"/>
</svg>
