<svg width="16" height="16" viewBox="0 0 16 16" fill="none" xmlns="http://www.w3.org/2000/svg">
<path d="M6.85043 6.77454V6.32561C6.6946 6.30094 6.53721 6.28742 6.37945 6.28516C4.85213 6.2819 3.49996 7.27166 3.0413 8.72847C2.58265 10.1853 3.12404 11.7711 4.37768 12.6434C3.91797 12.1514 3.61048 11.5369 3.49234 10.874C3.37419 10.2111 3.45044 9.52812 3.71188 8.9076C3.97332 8.28707 4.40878 7.75548 4.96568 7.37699C5.52259 6.99849 6.17714 6.78927 6.85033 6.77459L6.85043 6.77454Z" fill="#25F4EE"/>
<path d="M6.93534 11.8603C7.78928 11.8591 8.49119 11.1864 8.52858 10.3333V2.72032H9.91937C9.89099 2.56124 9.87745 2.39987 9.87892 2.23828L7.9766 2.23828V9.84391C7.94496 10.7014 7.24137 11.3806 6.38336 11.3819C6.12695 11.3798 5.87473 11.3167 5.64746 11.198C5.79476 11.402 5.9882 11.5684 6.21201 11.6835C6.43582 11.7986 6.68367 11.8592 6.93534 11.8603ZM12.5171 5.30331V4.88017C12.0053 4.88037 11.5048 4.72933 11.0785 4.44602C11.4522 4.88047 11.9572 5.18141 12.5171 5.30331Z" fill="#25F4EE"/>
<path d="M11.0781 4.44817C10.6581 3.96996 10.4266 3.3552 10.4268 2.71875H9.919C9.98459 3.07063 10.1212 3.40546 10.3205 3.7028C10.5198 4.00014 10.7775 4.25376 11.0781 4.44817ZM6.37932 8.19026C6.02316 8.19207 5.67784 8.31289 5.39824 8.53351C5.11864 8.75413 4.92082 9.06189 4.83623 9.40786C4.75163 9.75382 4.78512 10.1181 4.93137 10.4429C5.07762 10.7676 5.32824 11.0342 5.64337 11.2001C5.47107 10.9622 5.36789 10.6813 5.34523 10.3885C5.32257 10.0956 5.38131 9.80217 5.51495 9.5406C5.6486 9.27903 5.85196 9.05949 6.10256 8.90625C6.35315 8.75301 6.64123 8.67202 6.93497 8.67224C7.09466 8.67433 7.25323 8.69919 7.4059 8.74606V6.81042C7.24999 6.78705 7.09262 6.77475 6.93497 6.77364H6.8503V8.24543C6.69682 8.20426 6.53816 8.18567 6.37932 8.19026Z" fill="#FE2C55"/>
<path d="M12.5171 5.30469V6.77653C11.5696 6.77468 10.6466 6.47474 9.87893 5.91918V9.78639C9.87486 11.7161 8.30938 13.2783 6.3797 13.2783C5.66302 13.2796 4.96361 13.0584 4.37793 12.6454C4.85551 13.1591 5.47672 13.517 6.16064 13.6726C6.84456 13.8282 7.55948 13.7743 8.21229 13.5178C8.86511 13.2613 9.42554 12.8141 9.8206 12.2346C10.2157 11.655 10.427 10.9699 10.4272 10.2685V6.41227C11.1974 6.96417 12.1215 7.2602 13.0691 7.25857V5.36343C12.8836 5.36287 12.6986 5.34319 12.5171 5.30469Z" fill="#FE2C55"/>
<path d="M9.87854 9.78717V5.91996C10.6485 6.47236 11.5728 6.76844 12.5204 6.76625V5.29446C11.9606 5.17623 11.4544 4.87921 11.0781 4.44817C10.7775 4.25376 10.5197 4.00014 10.3205 3.7028C10.1212 3.40546 9.98458 3.07063 9.91899 2.71875H8.5282V10.3355C8.51466 10.6671 8.39817 10.9862 8.19493 11.2485C7.99169 11.5108 7.7118 11.7032 7.39413 11.7991C7.07647 11.895 6.73683 11.8896 6.4224 11.7836C6.10797 11.6776 5.83438 11.4762 5.63964 11.2076C5.32445 11.0416 5.07378 10.7751 4.9275 10.4503C4.78121 10.1256 4.7477 9.76121 4.8323 9.4152C4.9169 9.0692 5.11475 8.76142 5.39438 8.54079C5.67402 8.32016 6.0194 8.19936 6.37558 8.19759C6.53533 8.19902 6.69401 8.22382 6.84657 8.27121V6.79936C6.16976 6.81084 5.51091 7.01899 4.95035 7.39844C4.38979 7.77789 3.95175 8.31224 3.68963 8.93634C3.42751 9.56044 3.35263 10.2473 3.47414 10.9132C3.59564 11.5791 3.90828 12.1953 4.37392 12.6866C4.96535 13.0861 5.66576 13.293 6.3793 13.2791C8.30898 13.2791 9.87446 11.7168 9.87854 9.78717Z" fill="black"/>
</svg>
