<svg width="16" height="16" viewBox="0 0 16 16" fill="none" xmlns="http://www.w3.org/2000/svg">
<path d="M13.5172 5.13213C13.5257 5.25467 13.5257 5.37721 13.5257 5.50088C13.5257 9.26917 10.657 13.6151 5.41143 13.6151V13.6129C3.86187 13.6151 2.34451 13.1713 1.04004 12.3344C1.26536 12.3615 1.4918 12.375 1.71882 12.3756C3.00296 12.3767 4.25039 11.9459 5.26065 11.1525C4.04032 11.1293 2.9702 10.3336 2.59637 9.17204C3.02385 9.25448 3.46432 9.23754 3.8839 9.12291C2.55345 8.85411 1.59627 7.68517 1.59627 6.32761C1.59627 6.31519 1.59627 6.30333 1.59627 6.29147C1.9927 6.51227 2.43656 6.63481 2.89058 6.64837C1.6375 5.81091 1.25124 4.1439 2.00794 2.84055C3.45585 4.6222 5.59213 5.70531 7.8854 5.81994C7.65557 4.82945 7.96954 3.79152 8.71044 3.09524C9.85905 2.01552 11.6655 2.07086 12.7453 3.21891C13.3839 3.09298 13.9961 2.85863 14.5563 2.52658C14.3434 3.18672 13.8978 3.74747 13.3026 4.1038C13.8679 4.03717 14.4202 3.88583 14.9403 3.65486C14.5574 4.2286 14.0751 4.72837 13.5172 5.13213Z" fill="#1D9BF0"/>
</svg>
