<svg width="16" height="16" viewBox="0 0 16 16" fill="none" xmlns="http://www.w3.org/2000/svg">
<path d="M8.30818 12.869L5.4179 12.8162C4.48209 12.7978 3.54395 12.8345 2.62649 12.6437C1.23083 12.3586 1.13195 10.9606 1.02849 9.78792C0.885931 8.13931 0.94112 6.46078 1.21015 4.82594C1.36202 3.90862 1.95971 3.36125 2.88402 3.30169C6.00423 3.08552 9.14519 3.11114 12.2585 3.21199C12.5873 3.22123 12.9183 3.27176 13.2426 3.32928C14.843 3.60981 14.882 5.19405 14.9857 6.52769C15.0892 7.87508 15.0455 9.2294 14.8478 10.5676C14.6891 11.6756 14.3856 12.6048 13.1046 12.6945C11.4996 12.8118 9.93145 12.9062 8.32194 12.8762C8.32201 12.869 8.31277 12.869 8.30818 12.869ZM6.60898 10.0639C7.81847 9.36941 9.00489 8.68654 10.2075 7.99675C8.99571 7.30231 7.81155 6.61943 6.60898 5.92965V10.0639Z" fill="#FF0000"/>
</svg>
