<svg viewBox="0 0 24 24" fill="none" xmlns="http://www.w3.org/2000/svg">
<path d="M11.8188 20.5742C16.7894 20.5742 20.8188 16.5448 20.8188 11.5742C20.8188 6.60366 16.7894 2.57422 11.8188 2.57422C6.84828 2.57422 2.81885 6.60366 2.81885 11.5742C2.81885 16.5448 6.84828 20.5742 11.8188 20.5742Z" stroke="black" stroke-miterlimit="10"/>
<path d="M20.0781 15.9711L14.9888 12.8409C14.8996 12.7861 14.7999 12.7505 14.6961 12.7365L12.5568 12.4481C12.3962 12.4265 12.2328 12.4574 12.0913 12.5364C11.9497 12.6154 11.8376 12.7381 11.7716 12.8861L10.4873 15.7678C10.4276 15.9018 10.4085 16.0504 10.4324 16.1952C10.4562 16.34 10.5221 16.4745 10.6217 16.5823L12.3842 18.4886C12.4641 18.5751 12.5225 18.6791 12.5547 18.7923C12.587 18.9055 12.5922 19.0247 12.5698 19.1402L12.2108 20.9961" stroke="black" stroke-linecap="round" stroke-linejoin="round"/>
<path d="M6.08916 5.21484L5.25064 7.19763C5.17587 7.37442 5.17174 7.57316 5.23909 7.75291L6.31635 10.628C6.36047 10.7458 6.43347 10.8505 6.52866 10.9327C6.62384 11.0148 6.73815 11.0717 6.86108 11.0982L8.87013 11.53C8.98161 11.5539 9.08616 11.603 9.17583 11.6734C9.2655 11.7439 9.33792 11.8338 9.3876 11.9364L9.74438 12.6735C9.80578 12.8003 9.90167 12.9073 10.0211 12.9822C10.1405 13.057 10.2785 13.0967 10.4195 13.0967H11.6788" stroke="black" stroke-linecap="round" stroke-linejoin="round"/>
<path d="M14.293 3.29297L15.168 4.86032C15.2508 5.00849 15.2808 5.18033 15.2532 5.34777C15.2256 5.51521 15.1421 5.66835 15.0162 5.78218L12.4933 8.06382C12.4505 8.10254 12.4034 8.13619 12.3528 8.1641L11.2052 8.79788C11.0942 8.85919 10.9694 8.89134 10.8426 8.89134H8.84149C8.69391 8.89134 8.54962 8.93488 8.42667 9.0165C8.30373 9.09812 8.20759 9.21419 8.1503 9.35019L7.36963 11.2035" stroke="black" stroke-linecap="round" stroke-linejoin="round"/>
</svg>
