<svg width="24" height="24" viewBox="0 0 24 24" fill="none" xmlns="http://www.w3.org/2000/svg">
<path d="M11.8186 20.5781C16.7892 20.5781 20.8186 16.5487 20.8186 11.5781C20.8186 6.60756 16.7892 2.57812 11.8186 2.57812C6.84804 2.57812 2.8186 6.60756 2.8186 11.5781C2.8186 16.5487 6.84804 20.5781 11.8186 20.5781Z" stroke="black" stroke-width="2" stroke-miterlimit="10"/>
<path d="M20.078 15.975L14.9887 12.8448C14.8995 12.79 14.7997 12.7544 14.6959 12.7404L12.5567 12.452C12.3961 12.4304 12.2327 12.4614 12.0912 12.5403C11.9496 12.6193 11.8374 12.742 11.7715 12.89L10.4872 15.7717C10.4275 15.9057 10.4084 16.0543 10.4322 16.1991C10.4561 16.3439 10.5219 16.4784 10.6215 16.5862L12.384 18.4925C12.4639 18.579 12.5224 18.683 12.5546 18.7962C12.5869 18.9094 12.592 19.0286 12.5697 19.1441L12.2107 21" stroke="black" stroke-width="2" stroke-linecap="round" stroke-linejoin="round"/>
<path d="M6.08928 5.21094L5.25076 7.19372C5.17599 7.37052 5.17186 7.56925 5.23921 7.749L6.31648 10.6241C6.36059 10.7419 6.4336 10.8466 6.52878 10.9288C6.62397 11.0109 6.73828 11.0678 6.8612 11.0942L8.87025 11.5261C8.98173 11.55 9.08628 11.5991 9.17595 11.6695C9.26562 11.7399 9.33805 11.8299 9.38773 11.9325L9.74451 12.6696C9.8059 12.7964 9.9018 12.9034 10.0212 12.9783C10.1406 13.0531 10.2787 13.0928 10.4196 13.0928H11.6789" stroke="black" stroke-width="2" stroke-linecap="round" stroke-linejoin="round"/>
<path d="M14.293 3.29688L15.168 4.86422C15.2508 5.01239 15.2808 5.18423 15.2532 5.35168C15.2256 5.51912 15.1421 5.67226 15.0162 5.78608L12.4933 8.06773C12.4505 8.10645 12.4034 8.1401 12.3528 8.16801L11.2052 8.80179C11.0942 8.86309 10.9694 8.89525 10.8426 8.89525H8.84149C8.69391 8.89525 8.54962 8.93879 8.42667 9.0204C8.30373 9.10202 8.20759 9.2181 8.1503 9.3541L7.36963 11.2074" stroke="black" stroke-width="2" stroke-linecap="round" stroke-linejoin="round"/>
</svg>
