<svg width="16" height="16" viewBox="0 0 16 16" fill="none" xmlns="http://www.w3.org/2000/svg">
<path d="M9.5 5V12.7324C9.5 12.8147 9.52032 12.8958 9.55916 12.9683C9.598 13.0409 9.65416 13.1028 9.72265 13.1484L10.4097 13.6064C10.4763 13.6509 10.5527 13.6787 10.6323 13.6874C10.712 13.6962 10.7926 13.6857 10.8673 13.6568C10.942 13.6279 11.0087 13.5815 11.0618 13.5214C11.1148 13.4613 11.1526 13.3894 11.1721 13.3117L12 10" stroke="#02006C" stroke-linecap="round" stroke-linejoin="round"/>
<path d="M12 9.99698C12.663 9.99698 13.2989 9.73359 13.7678 9.26474C14.2366 8.7959 14.5 8.16002 14.5 7.49698C14.5 6.83394 14.2366 6.19805 13.7678 5.72921C13.2989 5.26037 12.663 4.99698 12 4.99698H9.5C9.5 4.99698 6.09677 4.99698 2.82181 2.25025C2.74897 2.18895 2.66015 2.14972 2.56578 2.13717C2.47141 2.12463 2.37542 2.13929 2.28909 2.17944C2.20277 2.21958 2.12971 2.28354 2.0785 2.36379C2.02728 2.44405 2.00005 2.53725 2 2.63245V12.3615C2.00005 12.4567 2.02728 12.5499 2.0785 12.6302C2.12971 12.7104 2.20277 12.7744 2.28909 12.8145C2.37542 12.8547 2.47141 12.8693 2.56578 12.8568C2.66015 12.8442 2.74897 12.805 2.82181 12.7437C6.09677 9.99698 9.5 9.99698 9.5 9.99698H12Z" stroke="#02006C" stroke-linecap="round" stroke-linejoin="round"/>
</svg>
