<?xml version="1.0" encoding="utf-8"?>
<!-- Generator: Adobe Illustrator 21.0.0, SVG Export Plug-In . SVG Version: 6.00 Build 0)  -->
<svg version="1.1" id="Capa_1" xmlns="http://www.w3.org/2000/svg" xmlns:xlink="http://www.w3.org/1999/xlink" x="0px" y="0px"
	 viewBox="0 0 238 125.1" style="enable-background:new 0 0 238 125.1;" xml:space="preserve">
<style type="text/css">
	.st0{fill:#D4007D;}
</style>
<g>
	<path class="st0" d="M211.9,4.1L211.9,4.1c-26.5,6.2-49.7,21.6-66.3,42.9c-7.9,10-14.2,21.1-18.5,33.2c-5.2,13.9-8.1,29.1-8.1,44.9
		h63.8c0-2.1,0.1-4.2,0.3-6.2c1.6-15.3,8.9-28.8,19.7-38.1c9.1-9.1,21.4-15.2,35.1-16.7c0,0,0,0,0.1,0V0.2
		C229,0.6,220.3,2,211.9,4.1z"/>
	<g>
		<path class="st0" d="M92.9,4.1L92.9,4.1c-26.5,6.2-49.7,21.6-66.3,42.9c-7.9,10-14.2,21.1-18.5,33.2C2.9,94.1,0,109.2,0,125.1
			h63.8c0-2.1,0.1-4.2,0.3-6.2C65.7,103.6,73,90,83.8,80.7c9.1-9.1,21.4-15.2,35.1-16.7c0,0,0,0,0.1,0V0.1
			C110,0.5,101.3,1.9,92.9,4.1z"/>
	</g>
</g>
</svg>
