<svg width="227" height="227" viewBox="0 0 227 227" fill="none" xmlns="http://www.w3.org/2000/svg">
<path d="M59.804 0L-0.000976562 0C-0.000976563 55.4037 37.3055 101.851 87.0905 113.5C37.3055 125.149 -0.000976563 171.615 -0.000976563 227H59.804C59.804 197.251 83.005 173.055 111.567 173.055L111.567 53.9452C83.005 53.9452 59.804 29.7493 59.804 0Z" fill="#D4007D"/>
<path d="M175.237 0L115.414 0C115.414 55.4037 152.739 101.851 202.505 113.5C152.739 125.149 115.414 171.615 115.414 227H175.237C175.237 197.251 198.42 173.055 227 173.055V53.9452C198.42 53.9452 175.237 29.7493 175.237 0Z" fill="#D4007D"/>
</svg>
