<svg width="17" height="16" viewBox="0 0 17 16" fill="none" xmlns="http://www.w3.org/2000/svg">
<path d="M14.0996 4.5H3.09961C2.82347 4.5 2.59961 4.72386 2.59961 5V13C2.59961 13.2761 2.82347 13.5 3.09961 13.5H14.0996C14.3758 13.5 14.5996 13.2761 14.5996 13V5C14.5996 4.72386 14.3758 4.5 14.0996 4.5Z" stroke="#02006C" stroke-linecap="round" stroke-linejoin="round"/>
<path d="M11.0996 13.5V3C11.0996 2.86739 11.0469 2.74021 10.9532 2.64645C10.8594 2.55268 10.7322 2.5 10.5996 2.5H6.59961C6.467 2.5 6.33982 2.55268 6.24606 2.64645C6.15229 2.74021 6.09961 2.86739 6.09961 3V13.5" stroke="#02006C" stroke-linecap="round" stroke-linejoin="round"/>
</svg>
