<svg width="17" height="16" viewBox="0 0 17 16" fill="none" xmlns="http://www.w3.org/2000/svg">
<path d="M8.59961 8.5C9.70418 8.5 10.5996 7.60457 10.5996 6.5C10.5996 5.39543 9.70418 4.5 8.59961 4.5C7.49504 4.5 6.59961 5.39543 6.59961 6.5C6.59961 7.60457 7.49504 8.5 8.59961 8.5Z" stroke="#02006C" stroke-linecap="round" stroke-linejoin="round"/>
<path d="M13.5996 6.5C13.5996 11 8.59961 14.5 8.59961 14.5C8.59961 14.5 3.59961 11 3.59961 6.5C3.59961 5.17392 4.12639 3.90215 5.06408 2.96447C6.00176 2.02678 7.27353 1.5 8.59961 1.5C9.92569 1.5 11.1975 2.02678 12.1351 2.96447C13.0728 3.90215 13.5996 5.17392 13.5996 6.5V6.5Z" stroke="#02006C" stroke-linecap="round" stroke-linejoin="round"/>
</svg>
