<svg width="16" height="15" viewBox="0 0 16 15" fill="none" xmlns="http://www.w3.org/2000/svg">
<path fill-rule="evenodd" clip-rule="evenodd" d="M10.6667 5.9974C9.78269 5.9974 8.93485 6.34859 8.30973 6.97371C7.6846 7.59883 7.33342 8.44667 7.33342 9.33073V13.3307H8.66675V9.33073C8.66675 8.8003 8.87746 8.29159 9.25253 7.91652C9.62761 7.54144 10.1363 7.33073 10.6667 7.33073C11.1972 7.33073 11.7059 7.54144 12.081 7.91652C12.456 8.29159 12.6667 8.8003 12.6667 9.33073V13.3307H14.0001V9.33073C14.0001 8.44667 13.6489 7.59883 13.0238 6.97371C12.3986 6.34859 11.5508 5.9974 10.6667 5.9974ZM10.6667 4.66406C9.42907 4.66406 8.24209 5.15573 7.36692 6.0309C6.49175 6.90607 6.00008 8.09305 6.00008 9.33073V13.9974C6.00008 14.3656 6.29856 14.6641 6.66675 14.6641H9.33342C9.7016 14.6641 10.0001 14.3656 10.0001 13.9974V9.33073C10.0001 9.15392 10.0703 8.98435 10.1953 8.85933C10.3204 8.7343 10.4899 8.66406 10.6667 8.66406C10.8436 8.66406 11.0131 8.7343 11.1382 8.85933C11.2632 8.98435 11.3334 9.15392 11.3334 9.33073V13.9974C11.3334 14.3656 11.6319 14.6641 12.0001 14.6641H14.6667C15.0349 14.6641 15.3334 14.3656 15.3334 13.9974V9.33073C15.3334 8.09305 14.8418 6.90607 13.9666 6.0309C13.0914 5.15573 11.9044 4.66406 10.6667 4.66406Z" fill="#02006C"/>
<path fill-rule="evenodd" clip-rule="evenodd" d="M0.666748 5.9974C0.666748 5.62921 0.965225 5.33073 1.33341 5.33073H4.00008C4.36827 5.33073 4.66675 5.62921 4.66675 5.9974V13.9974C4.66675 14.3656 4.36827 14.6641 4.00008 14.6641H1.33341C0.965225 14.6641 0.666748 14.3656 0.666748 13.9974V5.9974ZM2.00008 6.66406V13.3307H3.33341V6.66406H2.00008Z" fill="#02006C"/>
<path fill-rule="evenodd" clip-rule="evenodd" d="M2.66675 1.9974C2.29856 1.9974 2.00008 2.29587 2.00008 2.66406C2.00008 3.03225 2.29856 3.33073 2.66675 3.33073C3.03494 3.33073 3.33341 3.03225 3.33341 2.66406C3.33341 2.29587 3.03494 1.9974 2.66675 1.9974ZM0.666748 2.66406C0.666748 1.55949 1.56218 0.664062 2.66675 0.664062C3.77132 0.664062 4.66675 1.55949 4.66675 2.66406C4.66675 3.76863 3.77132 4.66406 2.66675 4.66406C1.56218 4.66406 0.666748 3.76863 0.666748 2.66406Z" fill="#02006C"/>
</svg>
