<svg width="16" height="16" viewBox="0 0 16 16" fill="none" xmlns="http://www.w3.org/2000/svg">
<path d="M1.33593 14.6693L2.23726 11.3573C1.64335 10.3392 1.33132 9.18127 1.33326 8.0026C1.33326 4.3206 4.31793 1.33594 7.99993 1.33594C11.6819 1.33594 14.6666 4.3206 14.6666 8.0026C14.6666 11.6846 11.6819 14.6693 7.99993 14.6693C6.82178 14.6712 5.66437 14.3594 4.64659 13.7659L1.33593 14.6693ZM5.59393 4.8746C5.50784 4.87995 5.42371 4.90263 5.34659 4.94127C5.27428 4.98222 5.20826 5.03342 5.15059 5.09327C5.07059 5.1686 5.02526 5.23394 4.97659 5.29727C4.7302 5.61793 4.59767 6.01155 4.59993 6.41594C4.60126 6.7426 4.68659 7.0606 4.81993 7.35794C5.09259 7.95927 5.54126 8.59594 6.13393 9.18594C6.27659 9.32794 6.41593 9.4706 6.56593 9.60327C7.30152 10.2509 8.1781 10.718 9.12593 10.9673L9.50526 11.0253C9.62859 11.0319 9.75193 11.0226 9.87593 11.0166C10.0701 11.0066 10.2597 10.954 10.4313 10.8626C10.5419 10.8039 10.5939 10.7746 10.6866 10.7159C10.6866 10.7159 10.7153 10.6973 10.7699 10.6559C10.8599 10.5893 10.9153 10.5419 10.9899 10.4639C11.0453 10.4066 11.0933 10.3393 11.1299 10.2626C11.1819 10.1539 11.2339 9.9466 11.2553 9.77394C11.2713 9.64194 11.2666 9.56994 11.2646 9.52527C11.2619 9.45394 11.2026 9.37994 11.1379 9.3486L10.7499 9.1746C10.7499 9.1746 10.1699 8.92194 9.81593 8.7606C9.7786 8.74433 9.7386 8.73507 9.69793 8.73327C9.65231 8.72859 9.60623 8.73372 9.56276 8.74832C9.5193 8.76293 9.47946 8.78666 9.44593 8.81794V8.8166C9.44259 8.8166 9.39793 8.8546 8.91593 9.4386C8.88826 9.47578 8.85016 9.50387 8.80646 9.51931C8.76277 9.53474 8.71547 9.53682 8.67059 9.52527C8.62716 9.51366 8.5846 9.49895 8.54326 9.48127C8.46059 9.4466 8.43193 9.43327 8.37526 9.4086L8.37193 9.40727C7.99053 9.24075 7.63741 9.01584 7.32526 8.7406C7.24126 8.66727 7.16326 8.58727 7.08326 8.50994C6.82098 8.25876 6.5924 7.97461 6.40326 7.6646L6.36393 7.60127C6.33568 7.55871 6.31283 7.51281 6.29593 7.4646C6.27059 7.3666 6.33659 7.28794 6.33659 7.28794C6.33659 7.28794 6.49859 7.1106 6.57393 7.0146C6.63665 6.93482 6.69518 6.85182 6.74926 6.76594C6.82793 6.63927 6.85259 6.50927 6.81126 6.4086C6.62459 5.9526 6.43126 5.4986 6.23259 5.04794C6.19326 4.9586 6.07659 4.8946 5.97059 4.88194C5.93459 4.87794 5.89859 4.87394 5.86259 4.87127C5.77307 4.86682 5.68335 4.86771 5.59393 4.87394V4.8746Z" fill="#02006C"/>
</svg>
