<svg width="24" height="24" viewBox="0 0 24 24" fill="none" xmlns="http://www.w3.org/2000/svg">
<rect width="24" height="24" rx="12" fill="#02006C"/>
<path d="M14.268 18V13.356H15.8233L16.056 11.5507H14.268V10.3987C14.268 9.876 14.4133 9.51933 15.1627 9.51933H16.1187V7.90467C15.6559 7.85556 15.1907 7.83175 14.7253 7.83333C13.3473 7.83333 12.404 8.67467 12.404 10.22V11.5507H10.8453V13.356H12.404V18H6.66667C6.48986 18 6.32029 17.9298 6.19526 17.8047C6.07024 17.6797 6 17.5101 6 17.3333V6.66667C6 6.48986 6.07024 6.32029 6.19526 6.19526C6.32029 6.07024 6.48986 6 6.66667 6H17.3333C17.5101 6 17.6797 6.07024 17.8047 6.19526C17.9298 6.32029 18 6.48986 18 6.66667V17.3333C18 17.5101 17.9298 17.6797 17.8047 17.8047C17.6797 17.9298 17.5101 18 17.3333 18H14.268Z" fill="#F6F8FE"/>
</svg>
