<svg width="24" height="24" viewBox="0 0 24 24" fill="none" xmlns="http://www.w3.org/2000/svg">
<rect width="24" height="24" rx="12" fill="#02006C"/>
<path d="M12 5.33594C13.8114 5.33594 14.0374 5.3426 14.748 5.37594C15.458 5.40927 15.9414 5.5206 16.3667 5.68594C16.8067 5.85527 17.1774 6.0846 17.548 6.4546C17.887 6.78787 18.1493 7.191 18.3167 7.63594C18.4814 8.0606 18.5934 8.5446 18.6267 9.2546C18.658 9.96527 18.6667 10.1913 18.6667 12.0026C18.6667 13.8139 18.66 14.0399 18.6267 14.7506C18.5934 15.4606 18.4814 15.9439 18.3167 16.3693C18.1498 16.8145 17.8875 17.2177 17.548 17.5506C17.2147 17.8895 16.8116 18.1518 16.3667 18.3193C15.942 18.4839 15.458 18.5959 14.748 18.6293C14.0374 18.6606 13.8114 18.6693 12 18.6693C10.1887 18.6693 9.96271 18.6626 9.25204 18.6293C8.54204 18.5959 8.05871 18.4839 7.63337 18.3193C7.18826 18.1523 6.78506 17.8899 6.45204 17.5506C6.11298 17.2174 5.85066 16.8142 5.68337 16.3693C5.51804 15.9446 5.40671 15.4606 5.37337 14.7506C5.34204 14.0399 5.33337 13.8139 5.33337 12.0026C5.33337 10.1913 5.34004 9.96527 5.37337 9.2546C5.40671 8.54394 5.51804 8.06127 5.68337 7.63594C5.8502 7.19072 6.11258 6.78748 6.45204 6.4546C6.78515 6.11542 7.18833 5.85309 7.63337 5.68594C8.05871 5.5206 8.54137 5.40927 9.25204 5.37594C9.96271 5.3446 10.1887 5.33594 12 5.33594ZM12 8.66927C11.116 8.66927 10.2681 9.02046 9.64302 9.64558C9.0179 10.2707 8.66671 11.1185 8.66671 12.0026C8.66671 12.8867 9.0179 13.7345 9.64302 14.3596C10.2681 14.9847 11.116 15.3359 12 15.3359C12.8841 15.3359 13.7319 14.9847 14.3571 14.3596C14.9822 13.7345 15.3334 12.8867 15.3334 12.0026C15.3334 11.1185 14.9822 10.2707 14.3571 9.64558C13.7319 9.02046 12.8841 8.66927 12 8.66927ZM16.3334 8.5026C16.3334 8.28159 16.2456 8.06963 16.0893 7.91335C15.933 7.75707 15.7211 7.66927 15.5 7.66927C15.279 7.66927 15.0671 7.75707 14.9108 7.91335C14.7545 8.06963 14.6667 8.28159 14.6667 8.5026C14.6667 8.72362 14.7545 8.93558 14.9108 9.09186C15.0671 9.24814 15.279 9.33594 15.5 9.33594C15.7211 9.33594 15.933 9.24814 16.0893 9.09186C16.2456 8.93558 16.3334 8.72362 16.3334 8.5026ZM12 10.0026C12.5305 10.0026 13.0392 10.2133 13.4143 10.5884C13.7893 10.9635 14 11.4722 14 12.0026C14 12.533 13.7893 13.0417 13.4143 13.4168C13.0392 13.7919 12.5305 14.0026 12 14.0026C11.4696 14.0026 10.9609 13.7919 10.5858 13.4168C10.2108 13.0417 10 12.533 10 12.0026C10 11.4722 10.2108 10.9635 10.5858 10.5884C10.9609 10.2133 11.4696 10.0026 12 10.0026Z" fill="#F6F8FE"/>
</svg>
