<?xml version="1.0" encoding="utf-8"?>
<!-- Generator: Adobe Illustrator 21.0.0, SVG Export Plug-In . SVG Version: 6.00 Build 0)  -->
<svg version="1.1" id="Capa_1" xmlns="http://www.w3.org/2000/svg" xmlns:xlink="http://www.w3.org/1999/xlink" x="0px" y="0px"
	 viewBox="0 0 24 24" style="enable-background:new 0 0 24 24;" xml:space="preserve">
<style type="text/css">
	.st0{fill:#02006C;}
	.st1{fill:#FFFFFF;}
</style>
<path class="st0" d="M12,0L12,0c6.6,0,12,5.4,12,12l0,0c0,6.6-5.4,12-12,12l0,0C5.4,24,0,18.6,0,12l0,0C0,5.4,5.4,0,12,0z"/>
<g id="XMLID_801_">
	<path id="XMLID_802_" class="st1" d="M9.2,10.1H7.1c-0.1,0-0.2,0.1-0.2,0.2v6.8c0,0.1,0.1,0.2,0.2,0.2h2.1c0.1,0,0.2-0.1,0.2-0.2
		v-6.8C9.4,10.2,9.3,10.1,9.2,10.1z"/>
	<path id="XMLID_803_" class="st1" d="M8.1,6.8c-0.8,0-1.4,0.6-1.4,1.4c0,0.8,0.6,1.4,1.4,1.4c0.8,0,1.4-0.6,1.4-1.4
		C9.5,7.4,8.9,6.8,8.1,6.8z"/>
	<path id="XMLID_804_" class="st1" d="M14.6,10c-0.8,0-1.5,0.4-1.8,0.8v-0.4c0-0.1-0.1-0.2-0.2-0.2h-2c-0.1,0-0.2,0.1-0.2,0.2v6.8
		c0,0.1,0.1,0.2,0.2,0.2h2.1c0.1,0,0.2-0.1,0.2-0.2v-3.3c0-1.1,0.3-1.6,1.1-1.6c0.9,0,0.9,0.7,0.9,1.6v3.3c0,0.1,0.1,0.2,0.2,0.2
		h2.1c0.1,0,0.2-0.1,0.2-0.2v-3.7C17.2,11.7,16.9,10,14.6,10z"/>
</g>
</svg>
