<svg width="24" height="24" viewBox="0 0 24 24" fill="none" xmlns="http://www.w3.org/2000/svg">
<rect width="24" height="24" rx="12" fill="#02006C"/>
<g clip-path="url(#clip0_490_24825)">
<path d="M18.7747 7.77257C18.2657 7.9977 17.726 8.14555 17.1734 8.21124C17.7559 7.86286 18.1918 7.31458 18.4 6.66857C17.8534 6.9939 17.254 7.2219 16.6294 7.34524C16.2098 6.89629 15.6536 6.59855 15.0473 6.49829C14.4411 6.39804 13.8187 6.5009 13.2769 6.79087C12.7351 7.08085 12.3043 7.54169 12.0514 8.10177C11.7986 8.66184 11.7379 9.28976 11.8787 9.8879C10.7701 9.83234 9.68559 9.54425 8.69556 9.04235C7.70553 8.54044 6.83212 7.83594 6.13204 6.97457C5.88423 7.4002 5.75401 7.88406 5.7547 8.37657C5.7547 9.34324 6.2467 10.1972 6.9947 10.6972C6.55204 10.6833 6.11912 10.5638 5.73204 10.3486V10.3832C5.73217 11.027 5.95495 11.651 6.3626 12.1493C6.77025 12.6476 7.33769 12.9896 7.9687 13.1172C7.55778 13.2286 7.12691 13.245 6.7087 13.1652C6.88661 13.7194 7.23337 14.204 7.70043 14.5513C8.16749 14.8986 8.73145 15.0911 9.31337 15.1019C8.73502 15.5561 8.07282 15.8919 7.36462 16.09C6.65642 16.2881 5.91612 16.3447 5.18604 16.2566C6.4605 17.0762 7.9441 17.5113 9.45937 17.5099C14.588 17.5099 17.3927 13.2612 17.3927 9.57657C17.3927 9.45657 17.3894 9.33524 17.384 9.21657C17.9299 8.82202 18.4011 8.33325 18.7754 7.77324L18.7747 7.77257Z" fill="#F6F8FE"/>
</g>
<defs>
<clipPath id="clip0_490_24825">
<rect width="16" height="16" fill="white" transform="translate(4 4)"/>
</clipPath>
</defs>
</svg>
