<svg width="24" height="24" viewBox="0 0 24 24" fill="none" xmlns="http://www.w3.org/2000/svg">
<path d="M20.251 6.75H3.75098C3.33676 6.75 3.00098 7.08579 3.00098 7.5V19.5C3.00098 19.9142 3.33676 20.25 3.75098 20.25H20.251C20.6652 20.25 21.001 19.9142 21.001 19.5V7.5C21.001 7.08579 20.6652 6.75 20.251 6.75Z" stroke="#222538" stroke-linecap="round" stroke-linejoin="round"/>
<path d="M15.75 20.25V4.5C15.75 4.30109 15.671 4.11032 15.5303 3.96967C15.3897 3.82902 15.1989 3.75 15 3.75H9C8.80109 3.75 8.61032 3.82902 8.46967 3.96967C8.32902 4.11032 8.25 4.30109 8.25 4.5V20.25" stroke="#222538" stroke-linecap="round" stroke-linejoin="round"/>
</svg>
