<svg width="24" height="24" viewBox="0 0 24 24" fill="none" xmlns="http://www.w3.org/2000/svg">
<path d="M13.499 21V3.75C13.499 3.55109 13.42 3.36032 13.2794 3.21967C13.1387 3.07902 12.9479 3 12.749 3H3.74902C3.55011 3 3.35935 3.07902 3.21869 3.21967C3.07804 3.36032 2.99902 3.55109 2.99902 3.75V21" stroke="#222538" stroke-linecap="round" stroke-linejoin="round"/>
<path d="M20.999 21V9.75C20.999 9.55109 20.92 9.36032 20.7794 9.21967C20.6387 9.07902 20.4479 9 20.249 9H13.499" stroke="#222538" stroke-linecap="round" stroke-linejoin="round"/>
<path d="M5.99902 6.75H8.99902" stroke="#222538" stroke-width="2" stroke-linecap="round" stroke-linejoin="round"/>
<path d="M7.49902 14.25H10.499" stroke="#222538" stroke-width="2" stroke-linecap="round" stroke-linejoin="round"/>
<path d="M5.99902 18H8.99902" stroke="#222538" stroke-width="2" stroke-linecap="round" stroke-linejoin="round"/>
<path d="M16.499 16.5H17.999" stroke="#222538" stroke-width="2" stroke-linecap="round" stroke-linejoin="round"/>
<path d="M16.499 12.75H17.999" stroke="#222538" stroke-width="2" stroke-linecap="round" stroke-linejoin="round"/>
</svg>
