<svg width="149" height="24" viewBox="0 0 149 24" fill="none" xmlns="http://www.w3.org/2000/svg">
<g clip-path="url(#clip0_1802_39907)">
<path d="M5.85338 1.75781H0C0 7.1203 3.65135 11.6159 8.52404 12.7434C3.65135 13.8709 0 18.3683 0 23.729H5.85338C5.85338 20.8496 8.12417 18.5077 10.9197 18.5077V6.97914C8.12417 6.97914 5.85338 4.63723 5.85338 1.75781Z" fill="#D4007D"/>
<path d="M17.1511 1.75781H11.2959C11.2959 7.1203 14.9491 11.6159 19.8199 12.7434C14.9491 13.8709 11.2959 18.3683 11.2959 23.729H17.1511C17.1511 20.8496 19.4201 18.5077 22.2174 18.5077V6.97914C19.4201 6.97914 17.1511 4.63723 17.1511 1.75781Z" fill="#D4007D"/>
<path d="M56.7569 6.29688V15.3749C56.7569 18.7792 54.7576 20.2904 52.3257 20.2904C50.0929 20.2904 48.526 18.9511 48.526 15.3749V6.29688H44.4277V18.0915C44.4277 21.9753 47.5942 24.0041 50.8601 24.0041C53.158 24.0041 54.4246 23.7978 55.7907 22.4224C56.2811 21.9428 56.538 21.1464 56.7569 20.4026V23.9806H60.8226V6.29688H56.7569Z" fill="#02006C"/>
<path d="M128.199 19.7831C127.416 20.252 126.521 20.502 125.608 20.507C124.128 20.507 122.915 20.145 122.005 19.4211C121.126 18.7262 120.527 17.7199 120.228 16.4259H133.971V16.3281C134.032 15.6223 134.061 15.1083 134.061 14.7572C134.061 11.9104 133.296 9.63181 131.787 7.98488C130.278 6.33795 128.045 5.5 125.155 5.5C122.383 5.5 120.145 6.37957 118.502 8.11338C116.859 9.84718 116.036 12.171 116.036 15.0196C116.036 15.5988 116.051 16.0404 116.081 16.3354C116.409 18.8981 117.447 20.8346 119.168 22.0888C120.889 23.343 123.038 23.9746 125.572 23.9746C127.358 24.0056 129.12 23.5508 130.669 22.6589C132.121 21.8085 133.263 20.5144 133.926 18.9669H129.288C128.962 19.2846 128.596 19.5589 128.199 19.7831ZM121.703 10.0662C122.144 9.62421 122.67 9.27611 123.249 9.04283C123.828 8.80955 124.448 8.69593 125.072 8.70881C126.379 8.70523 127.636 9.20791 128.581 10.1114C129.033 10.5493 129.394 11.0726 129.642 11.6511C129.891 12.2296 130.022 12.8517 130.028 13.4813H120.077C120.272 12.0932 120.817 10.9457 121.703 10.0662Z" fill="#02006C"/>
<path d="M69.5529 7.99599C68.9504 8.4575 68.5161 9.22667 68.1741 9.99584V6.21875H63.9492V23.9749H68.1741V16.4678C68.1741 10.9587 73.9208 10.3632 76.3906 10.3632H76.4955V6.27847H76.3906C73.2803 6.27847 71.3732 6.54452 69.5529 7.99599Z" fill="#02006C"/>
<path d="M83.5343 6.21875H79.3438V23.9749H83.5343V6.21875Z" fill="#02006C"/>
<path d="M83.6973 0H79.1123V4.45939H83.6973V0Z" fill="#02006C"/>
<path d="M106.718 6.27847C105.119 6.27847 104.037 6.854 102.904 7.72633C101.866 8.55342 101.276 10.032 101.144 10.3904L100.867 10.3741C100.831 9.97955 100.633 8.50093 99.6327 7.4621C98.8474 6.64768 97.7654 6.28571 96.1243 6.28571H96.0791C95.1932 6.29591 94.3244 6.52987 93.5531 6.96588C92.7819 7.40189 92.1334 8.0258 91.6678 8.77964L91.3656 9.25563V6.21875H87.1045V23.9749H91.3602V14.7448C91.3602 11.4147 92.4784 9.85829 94.8758 9.85829C97.0779 9.85829 98.0604 11.3641 98.0604 14.7448V23.9749H102.316V14.7448C102.316 11.3224 103.288 9.85829 105.573 9.85829C107.706 9.85829 108.649 11.3641 108.649 14.7448V23.9749H112.906V12.2237C112.906 8.55704 110.536 6.27847 106.718 6.27847Z" fill="#02006C"/>
<path d="M148.189 10.068V6.22035H143.921V0H139.698V6.22035H136.408V10.068H139.698V18.1651C139.698 20.974 140.814 23.9765 143.946 23.9765H148.2V19.8899H145.987C144.422 19.8899 143.921 19.4718 143.921 18.1651V10.068H148.189Z" fill="#02006C"/>
<path d="M37.0185 0H32.7953V6.22035H29.5059V10.068H32.7953V18.1651C32.7953 20.974 33.9117 23.9765 37.0438 23.9765H41.3013V19.8899H39.083C37.5178 19.8899 37.0166 19.4718 37.0166 18.1651V10.068H41.2922V6.22035H37.0185V0Z" fill="#02006C"/>
</g>
<defs>
<clipPath id="clip0_1802_39907">
<rect width="148.2" height="24" fill="white"/>
</clipPath>
</defs>
</svg>
