<svg width="247" height="40" viewBox="0 0 247 40" fill="none" xmlns="http://www.w3.org/2000/svg">
<g clip-path="url(#clip0_1238_74226)">
<path d="M9.75563 2.92969H0C0 11.8672 6.08559 19.3598 14.2067 21.239C6.08559 23.1182 0 30.6139 0 39.5483H9.75563C9.75563 34.7493 13.5403 30.8461 18.1995 30.8461V11.6319C13.5403 11.6319 9.75563 7.72872 9.75563 2.92969Z" fill="#D4007D"/>
<path d="M28.5858 2.92969H18.8271C18.8271 11.8672 24.9158 19.3598 33.0339 21.239C24.9158 23.1182 18.8271 30.6139 18.8271 39.5483H28.5858C28.5858 34.7493 32.3674 30.8461 37.0296 30.8461V11.6319C32.3674 11.6319 28.5858 7.72872 28.5858 2.92969Z" fill="#D4007D"/>
<path d="M94.5946 10.4844V25.6145C94.5946 31.2882 91.2623 33.8069 87.2092 33.8069C83.4879 33.8069 80.8764 31.5748 80.8764 25.6145V10.4844H74.0459V30.142C74.0459 36.6151 79.3233 39.9965 84.7665 39.9965C88.5964 39.9965 90.7074 39.6526 92.9842 37.3602C93.8014 36.5608 94.2297 35.2336 94.5946 33.9939V39.9573H101.371V10.4844H94.5946Z" fill="white"/>
<path d="M213.665 32.977C212.359 33.7585 210.868 34.1752 209.346 34.1836C206.88 34.1836 204.859 33.5803 203.342 32.3737C201.877 31.2155 200.878 29.5384 200.381 27.3817H223.285V27.2188C223.387 26.0424 223.435 25.1858 223.435 24.6006C223.435 19.8558 222.16 16.0582 219.645 13.3133C217.13 10.5685 213.408 9.17188 208.592 9.17188C203.972 9.17188 200.242 10.6378 197.504 13.5275C194.766 16.4172 193.394 20.2902 193.394 25.0379C193.394 26.0032 193.418 26.7392 193.469 27.2308C194.015 31.502 195.746 34.7295 198.614 36.8199C201.482 38.9102 205.064 39.9629 209.286 39.9629C212.264 40.0145 215.2 39.2566 217.781 37.77C220.202 36.3527 222.105 34.1959 223.209 31.6166H215.48C214.936 32.1462 214.326 32.6035 213.665 32.977ZM202.839 16.7822C203.573 16.0456 204.45 15.4654 205.415 15.0766C206.38 14.6878 207.414 14.4984 208.454 14.5199C210.632 14.5139 212.727 15.3517 214.301 16.8576C215.055 17.5873 215.656 18.4596 216.071 19.4237C216.485 20.3879 216.703 21.4247 216.714 22.474H200.128C200.453 20.1605 201.361 18.2481 202.839 16.7822Z" fill="white"/>
<path d="M115.922 13.3293C114.917 14.0984 114.194 15.3804 113.624 16.6623V10.3672H106.582V39.9607H113.624V27.4489C113.624 18.267 123.201 17.2747 127.318 17.2747H127.493V10.4667H127.318C122.134 10.4667 118.955 10.9101 115.922 13.3293Z" fill="white"/>
<path d="M139.224 10.3672H132.239V39.9607H139.224V10.3672Z" fill="white"/>
<path d="M139.494 0H131.853V7.43232H139.494V0Z" fill="white"/>
<path d="M177.863 10.4667C175.197 10.4667 173.393 11.4259 171.506 12.8798C169.775 14.2583 168.791 16.7227 168.571 17.3199L168.11 17.2928C168.05 16.6352 167.721 14.1708 166.053 12.4394C164.744 11.0821 162.941 10.4788 160.206 10.4788H160.13C158.654 10.4958 157.206 10.8857 155.921 11.6124C154.635 12.3391 153.554 13.3789 152.778 14.6353L152.275 15.4286V10.3672H145.173V39.9607H152.266V24.5773C152.266 19.0272 154.129 16.4331 158.125 16.4331C161.795 16.4331 163.433 18.9427 163.433 24.5773V39.9607H170.525V24.5773C170.525 18.8733 172.145 16.4331 175.954 16.4331C179.509 16.4331 181.08 18.9427 181.08 24.5773V39.9607H188.176V20.3755C188.176 14.2643 184.226 10.4667 177.863 10.4667Z" fill="white"/>
<path d="M246.982 16.78V10.3672H239.868V0H232.829V10.3672H227.347V16.78H232.829V30.2752C232.829 34.9566 234.69 39.9608 239.91 39.9608H247V33.1498H243.312C240.703 33.1498 239.868 32.4531 239.868 30.2752V16.78H246.982Z" fill="white"/>
<path d="M61.6968 0H54.6582V10.3672H49.1758V16.78H54.6582V30.2752C54.6582 34.9566 56.5189 39.9608 61.739 39.9608H68.8348V33.1498H65.1376C62.5291 33.1498 61.6938 32.4531 61.6938 30.2752V16.78H68.8197V10.3672H61.6968V0Z" fill="white"/>
</g>
<defs>
<clipPath id="clip0_1238_74226">
<rect width="247" height="40" fill="white"/>
</clipPath>
</defs>
</svg>
